<mxfile host="app.diagrams.net" modified="2021-11-05T03:34:40.839Z" agent="5.0 (Windows NT 10.0; Win64; x64) AppleWebKit/537.36 (KHTML, like Gecko) Chrome/95.0.4638.54 Safari/537.36" etag="j7Xh2uHm0sZ-vscLXYkh" version="15.6.8" type="github">
  <diagram id="54Dfr4HZBgD_Pt3soP5F" name="第 1 页">
    <mxGraphModel dx="1422" dy="761" grid="1" gridSize="10" guides="1" tooltips="1" connect="1" arrows="1" fold="1" page="1" pageScale="1" pageWidth="827" pageHeight="1169" math="0" shadow="0">
      <root>
        <mxCell id="0" />
        <mxCell id="1" parent="0" />
        <mxCell id="pDe4_9r3hl0GgBKhuWyb-1" value="用户(发布者)" style="swimlane;" vertex="1" parent="1">
          <mxGeometry x="190" y="70" width="370" height="570" as="geometry" />
        </mxCell>
        <mxCell id="pDe4_9r3hl0GgBKhuWyb-5" value="注册用户" style="rounded=0;whiteSpace=wrap;html=1;" vertex="1" parent="pDe4_9r3hl0GgBKhuWyb-1">
          <mxGeometry x="127" y="80" width="115" height="40" as="geometry" />
        </mxCell>
        <mxCell id="pDe4_9r3hl0GgBKhuWyb-6" value="创建秀文明" style="rounded=0;whiteSpace=wrap;html=1;" vertex="1" parent="pDe4_9r3hl0GgBKhuWyb-1">
          <mxGeometry x="127" y="160" width="115" height="40" as="geometry" />
        </mxCell>
        <mxCell id="pDe4_9r3hl0GgBKhuWyb-8" value="" style="endArrow=classic;html=1;rounded=0;exitX=0.5;exitY=1;exitDx=0;exitDy=0;" edge="1" parent="pDe4_9r3hl0GgBKhuWyb-1" source="pDe4_9r3hl0GgBKhuWyb-5" target="pDe4_9r3hl0GgBKhuWyb-6">
          <mxGeometry width="50" height="50" relative="1" as="geometry">
            <mxPoint x="402" y="250" as="sourcePoint" />
            <mxPoint x="452" y="200" as="targetPoint" />
          </mxGeometry>
        </mxCell>
        <mxCell id="pDe4_9r3hl0GgBKhuWyb-9" value="编辑：文字，图片，地址" style="rounded=0;whiteSpace=wrap;html=1;" vertex="1" parent="pDe4_9r3hl0GgBKhuWyb-1">
          <mxGeometry x="127" y="230" width="115" height="40" as="geometry" />
        </mxCell>
        <mxCell id="pDe4_9r3hl0GgBKhuWyb-10" value="" style="endArrow=classic;html=1;rounded=0;exitX=0.5;exitY=1;exitDx=0;exitDy=0;" edge="1" parent="pDe4_9r3hl0GgBKhuWyb-1" source="pDe4_9r3hl0GgBKhuWyb-6" target="pDe4_9r3hl0GgBKhuWyb-9">
          <mxGeometry width="50" height="50" relative="1" as="geometry">
            <mxPoint x="402" y="240" as="sourcePoint" />
            <mxPoint x="452" y="190" as="targetPoint" />
          </mxGeometry>
        </mxCell>
        <mxCell id="pDe4_9r3hl0GgBKhuWyb-13" value="" style="endArrow=classic;html=1;rounded=0;exitX=0.5;exitY=1;exitDx=0;exitDy=0;entryX=0.5;entryY=0;entryDx=0;entryDy=0;" edge="1" parent="pDe4_9r3hl0GgBKhuWyb-1" source="pDe4_9r3hl0GgBKhuWyb-9" target="pDe4_9r3hl0GgBKhuWyb-52">
          <mxGeometry width="50" height="50" relative="1" as="geometry">
            <mxPoint x="402" y="240" as="sourcePoint" />
            <mxPoint x="185" y="300" as="targetPoint" />
          </mxGeometry>
        </mxCell>
        <mxCell id="pDe4_9r3hl0GgBKhuWyb-30" value="发布秀文明" style="rounded=1;whiteSpace=wrap;html=1;" vertex="1" parent="pDe4_9r3hl0GgBKhuWyb-1">
          <mxGeometry x="132.5" y="400" width="105" height="40" as="geometry" />
        </mxCell>
        <mxCell id="pDe4_9r3hl0GgBKhuWyb-32" value="用户评论，点赞" style="rounded=0;whiteSpace=wrap;html=1;" vertex="1" parent="pDe4_9r3hl0GgBKhuWyb-1">
          <mxGeometry x="127.5" y="470" width="115" height="40" as="geometry" />
        </mxCell>
        <mxCell id="pDe4_9r3hl0GgBKhuWyb-33" value="" style="endArrow=classic;html=1;rounded=0;exitX=0.5;exitY=1;exitDx=0;exitDy=0;entryX=0.5;entryY=0;entryDx=0;entryDy=0;" edge="1" parent="pDe4_9r3hl0GgBKhuWyb-1" source="pDe4_9r3hl0GgBKhuWyb-30" target="pDe4_9r3hl0GgBKhuWyb-32">
          <mxGeometry width="50" height="50" relative="1" as="geometry">
            <mxPoint x="400" y="350" as="sourcePoint" />
            <mxPoint x="450" y="300" as="targetPoint" />
          </mxGeometry>
        </mxCell>
        <mxCell id="pDe4_9r3hl0GgBKhuWyb-49" value="" style="whiteSpace=wrap;html=1;align=center;fillColor=none;strokeColor=#FF0000;strokeWidth=2;dashed=1;" vertex="1" parent="pDe4_9r3hl0GgBKhuWyb-1">
          <mxGeometry x="82" y="390" width="205" height="140" as="geometry" />
        </mxCell>
        <mxCell id="pDe4_9r3hl0GgBKhuWyb-52" value="&lt;span style=&quot;font-size: 12px&quot;&gt;AI审核&lt;/span&gt;" style="ellipse;whiteSpace=wrap;html=1;aspect=fixed;fontSize=14;strokeColor=#9673a6;strokeWidth=2;fillColor=#e1d5e7;" vertex="1" parent="pDe4_9r3hl0GgBKhuWyb-1">
          <mxGeometry x="150" y="310" width="70" height="70" as="geometry" />
        </mxCell>
        <mxCell id="pDe4_9r3hl0GgBKhuWyb-2" value="B端" style="swimlane;" vertex="1" parent="1">
          <mxGeometry x="560" y="70" width="370" height="570" as="geometry" />
        </mxCell>
        <mxCell id="pDe4_9r3hl0GgBKhuWyb-20" value="文明秀" style="rounded=0;whiteSpace=wrap;html=1;" vertex="1" parent="pDe4_9r3hl0GgBKhuWyb-2">
          <mxGeometry x="127" y="266" width="122" height="30" as="geometry" />
        </mxCell>
        <mxCell id="pDe4_9r3hl0GgBKhuWyb-21" value="内容管理" style="rounded=0;whiteSpace=wrap;html=1;" vertex="1" parent="pDe4_9r3hl0GgBKhuWyb-2">
          <mxGeometry x="127" y="126" width="122" height="30" as="geometry" />
        </mxCell>
        <mxCell id="pDe4_9r3hl0GgBKhuWyb-22" value="审核管理" style="rounded=0;whiteSpace=wrap;html=1;" vertex="1" parent="pDe4_9r3hl0GgBKhuWyb-2">
          <mxGeometry x="127" y="196" width="122" height="30" as="geometry" />
        </mxCell>
        <mxCell id="pDe4_9r3hl0GgBKhuWyb-23" value="" style="endArrow=classic;html=1;rounded=0;exitX=0.5;exitY=1;exitDx=0;exitDy=0;" edge="1" parent="pDe4_9r3hl0GgBKhuWyb-2" source="pDe4_9r3hl0GgBKhuWyb-21" target="pDe4_9r3hl0GgBKhuWyb-22">
          <mxGeometry width="50" height="50" relative="1" as="geometry">
            <mxPoint x="-300" y="216" as="sourcePoint" />
            <mxPoint x="-250" y="166" as="targetPoint" />
          </mxGeometry>
        </mxCell>
        <mxCell id="pDe4_9r3hl0GgBKhuWyb-24" value="" style="endArrow=classic;html=1;rounded=0;entryX=0.5;entryY=0;entryDx=0;entryDy=0;" edge="1" parent="pDe4_9r3hl0GgBKhuWyb-2" target="pDe4_9r3hl0GgBKhuWyb-20">
          <mxGeometry width="50" height="50" relative="1" as="geometry">
            <mxPoint x="188" y="226" as="sourcePoint" />
            <mxPoint x="-250" y="166" as="targetPoint" />
          </mxGeometry>
        </mxCell>
        <mxCell id="pDe4_9r3hl0GgBKhuWyb-25" value="审核通过" style="ellipse;whiteSpace=wrap;html=1;fillColor=#d5e8d4;strokeColor=#82b366;" vertex="1" parent="pDe4_9r3hl0GgBKhuWyb-2">
          <mxGeometry x="70" y="324.75" width="80" height="40" as="geometry" />
        </mxCell>
        <mxCell id="pDe4_9r3hl0GgBKhuWyb-26" value="未通过" style="ellipse;whiteSpace=wrap;html=1;fillColor=#f8cecc;strokeColor=#b85450;" vertex="1" parent="pDe4_9r3hl0GgBKhuWyb-2">
          <mxGeometry x="220" y="327" width="80" height="40" as="geometry" />
        </mxCell>
        <mxCell id="pDe4_9r3hl0GgBKhuWyb-27" value="" style="endArrow=classic;html=1;rounded=0;exitX=0.25;exitY=1;exitDx=0;exitDy=0;entryX=0.5;entryY=0;entryDx=0;entryDy=0;edgeStyle=orthogonalEdgeStyle;curved=1;" edge="1" parent="pDe4_9r3hl0GgBKhuWyb-2" source="pDe4_9r3hl0GgBKhuWyb-20" target="pDe4_9r3hl0GgBKhuWyb-25">
          <mxGeometry width="50" height="50" relative="1" as="geometry">
            <mxPoint x="-300" y="216" as="sourcePoint" />
            <mxPoint x="-250" y="166" as="targetPoint" />
          </mxGeometry>
        </mxCell>
        <mxCell id="pDe4_9r3hl0GgBKhuWyb-28" value="" style="endArrow=classic;html=1;rounded=0;curved=1;exitX=0.75;exitY=1;exitDx=0;exitDy=0;entryX=0.5;entryY=0;entryDx=0;entryDy=0;edgeStyle=orthogonalEdgeStyle;" edge="1" parent="pDe4_9r3hl0GgBKhuWyb-2" source="pDe4_9r3hl0GgBKhuWyb-20" target="pDe4_9r3hl0GgBKhuWyb-26">
          <mxGeometry width="50" height="50" relative="1" as="geometry">
            <mxPoint x="-300" y="216" as="sourcePoint" />
            <mxPoint x="-250" y="166" as="targetPoint" />
          </mxGeometry>
        </mxCell>
        <mxCell id="pDe4_9r3hl0GgBKhuWyb-3" value="P端" style="swimlane;" vertex="1" parent="1">
          <mxGeometry x="930" y="70" width="370" height="570" as="geometry" />
        </mxCell>
        <mxCell id="pDe4_9r3hl0GgBKhuWyb-14" value="其它服务" style="rounded=0;whiteSpace=wrap;html=1;" vertex="1" parent="pDe4_9r3hl0GgBKhuWyb-3">
          <mxGeometry x="220" y="210" width="115" height="40" as="geometry" />
        </mxCell>
        <mxCell id="pDe4_9r3hl0GgBKhuWyb-15" value="敏感词审核" style="rounded=0;whiteSpace=wrap;html=1;" vertex="1" parent="pDe4_9r3hl0GgBKhuWyb-3">
          <mxGeometry x="220" y="280" width="115" height="40" as="geometry" />
        </mxCell>
        <mxCell id="pDe4_9r3hl0GgBKhuWyb-16" value="" style="endArrow=classic;html=1;rounded=0;exitX=0.5;exitY=1;exitDx=0;exitDy=0;entryX=0.5;entryY=0;entryDx=0;entryDy=0;" edge="1" parent="pDe4_9r3hl0GgBKhuWyb-3" source="pDe4_9r3hl0GgBKhuWyb-14" target="pDe4_9r3hl0GgBKhuWyb-15">
          <mxGeometry width="50" height="50" relative="1" as="geometry">
            <mxPoint x="-340" y="340" as="sourcePoint" />
            <mxPoint x="-290" y="290" as="targetPoint" />
          </mxGeometry>
        </mxCell>
        <mxCell id="pDe4_9r3hl0GgBKhuWyb-18" value="" style="endArrow=classic;html=1;rounded=0;exitX=0.5;exitY=1;exitDx=0;exitDy=0;entryX=0.5;entryY=0;entryDx=0;entryDy=0;" edge="1" parent="pDe4_9r3hl0GgBKhuWyb-3" source="pDe4_9r3hl0GgBKhuWyb-15">
          <mxGeometry width="50" height="50" relative="1" as="geometry">
            <mxPoint x="-340" y="340" as="sourcePoint" />
            <mxPoint x="277.5" y="360" as="targetPoint" />
          </mxGeometry>
        </mxCell>
        <mxCell id="pDe4_9r3hl0GgBKhuWyb-40" value="内容管理" style="rounded=0;whiteSpace=wrap;html=1;" vertex="1" parent="pDe4_9r3hl0GgBKhuWyb-3">
          <mxGeometry x="50" y="280" width="122" height="30" as="geometry" />
        </mxCell>
        <mxCell id="pDe4_9r3hl0GgBKhuWyb-41" value="秀文明" style="rounded=0;whiteSpace=wrap;html=1;" vertex="1" parent="pDe4_9r3hl0GgBKhuWyb-3">
          <mxGeometry x="50" y="370" width="122" height="30" as="geometry" />
        </mxCell>
        <mxCell id="pDe4_9r3hl0GgBKhuWyb-42" value="" style="endArrow=classic;html=1;rounded=0;exitX=0.5;exitY=1;exitDx=0;exitDy=0;entryX=0.5;entryY=0;entryDx=0;entryDy=0;" edge="1" parent="pDe4_9r3hl0GgBKhuWyb-3" source="pDe4_9r3hl0GgBKhuWyb-40" target="pDe4_9r3hl0GgBKhuWyb-41">
          <mxGeometry width="50" height="50" relative="1" as="geometry">
            <mxPoint x="-1376" y="150" as="sourcePoint" />
            <mxPoint x="-1326" y="100" as="targetPoint" />
          </mxGeometry>
        </mxCell>
        <mxCell id="pDe4_9r3hl0GgBKhuWyb-51" value="&lt;span style=&quot;font-size: 12px&quot;&gt;设置AI审核&lt;/span&gt;" style="ellipse;whiteSpace=wrap;html=1;aspect=fixed;fontSize=14;strokeColor=#9673a6;strokeWidth=2;fillColor=#e1d5e7;" vertex="1" parent="pDe4_9r3hl0GgBKhuWyb-3">
          <mxGeometry x="242.5" y="360" width="70" height="70" as="geometry" />
        </mxCell>
        <mxCell id="pDe4_9r3hl0GgBKhuWyb-54" value="查看详情" style="rounded=1;whiteSpace=wrap;html=1;fontSize=14;strokeColor=#000000;strokeWidth=1;fillColor=default;" vertex="1" parent="pDe4_9r3hl0GgBKhuWyb-3">
          <mxGeometry x="100" y="430" width="90" height="30" as="geometry" />
        </mxCell>
        <mxCell id="pDe4_9r3hl0GgBKhuWyb-19" value="" style="endArrow=classic;html=1;rounded=0;entryX=0;entryY=0.5;entryDx=0;entryDy=0;exitX=1;exitY=0.5;exitDx=0;exitDy=0;" edge="1" parent="1" source="pDe4_9r3hl0GgBKhuWyb-52" target="pDe4_9r3hl0GgBKhuWyb-25">
          <mxGeometry width="50" height="50" relative="1" as="geometry">
            <mxPoint x="430" y="420" as="sourcePoint" />
            <mxPoint x="620" y="409" as="targetPoint" />
          </mxGeometry>
        </mxCell>
        <mxCell id="pDe4_9r3hl0GgBKhuWyb-43" value="" style="endArrow=classic;html=1;rounded=0;exitX=0.25;exitY=1;exitDx=0;exitDy=0;entryX=1;entryY=0.5;entryDx=0;entryDy=0;dashed=1;" edge="1" parent="1" source="pDe4_9r3hl0GgBKhuWyb-41" target="pDe4_9r3hl0GgBKhuWyb-49">
          <mxGeometry width="50" height="50" relative="1" as="geometry">
            <mxPoint x="590" y="420" as="sourcePoint" />
            <mxPoint x="510" y="520" as="targetPoint" />
            <Array as="points">
              <mxPoint x="1011" y="530" />
            </Array>
          </mxGeometry>
        </mxCell>
        <mxCell id="pDe4_9r3hl0GgBKhuWyb-50" value="&lt;font style=&quot;font-size: 14px&quot;&gt;下架&lt;/font&gt;" style="edgeLabel;html=1;align=center;verticalAlign=middle;resizable=0;points=[];" vertex="1" connectable="0" parent="pDe4_9r3hl0GgBKhuWyb-43">
          <mxGeometry x="0.0596" y="2" relative="1" as="geometry">
            <mxPoint as="offset" />
          </mxGeometry>
        </mxCell>
        <mxCell id="pDe4_9r3hl0GgBKhuWyb-53" value="" style="endArrow=classic;html=1;rounded=0;fontSize=14;exitX=0.75;exitY=1;exitDx=0;exitDy=0;" edge="1" parent="1" source="pDe4_9r3hl0GgBKhuWyb-41">
          <mxGeometry width="50" height="50" relative="1" as="geometry">
            <mxPoint x="590" y="410" as="sourcePoint" />
            <mxPoint x="1072" y="500" as="targetPoint" />
          </mxGeometry>
        </mxCell>
        <mxCell id="pDe4_9r3hl0GgBKhuWyb-55" value="" style="endArrow=classic;html=1;rounded=0;fontSize=14;exitX=0.5;exitY=1;exitDx=0;exitDy=0;entryX=1;entryY=0.5;entryDx=0;entryDy=0;" edge="1" parent="1" source="pDe4_9r3hl0GgBKhuWyb-25" target="pDe4_9r3hl0GgBKhuWyb-30">
          <mxGeometry width="50" height="50" relative="1" as="geometry">
            <mxPoint x="590" y="410" as="sourcePoint" />
            <mxPoint x="490" y="440" as="targetPoint" />
            <Array as="points">
              <mxPoint x="670" y="490" />
            </Array>
          </mxGeometry>
        </mxCell>
      </root>
    </mxGraphModel>
  </diagram>
</mxfile>
